# xmcd
#
# Track frame offsets:
#	150
#	14455
#	32130
#	43545
#	58135
#	67300
#	82565
#	105770
#	126255
#	193832
#
# Disc length: 2770 seconds
#
# Revision: 0
# Processed by: cddbd v1.5.2PL0 Copyright (c) Steve Scherf et al.
# Submitted via: audiograbber 1.83.01
#
DISCID=810ad00a
DTITLE=Moskau Quartett - Programm
DYEAR=1999
DGENRE=Club-House
TTITLE0=A.Vivaldi - Le quattro stagioni - Primavera 1.Satz
TTITLE1=A.Vivaldi - Le quattro stagioni - Primavera 3. Satz
TTITLE2=A.Vivaldi - Le quattro stagioni - Estate 3. Satz
TTITLE3=A.Vivaldi - Le quattro stagioni - Autumno 3. Satz
TTITLE4=A.Vivaldi - Le quattro stagioni - Inverno 2. Satz
TTITLE5=A.Dvorak - Humoreske
TTITLE6=A.Bazzini - Elfentanz
TTITLE7=J.S. Bach - Arie
TTITLE8=J.S. Bach - Ciaccona
TTITLE9=J.S. Bach - Serenade
EXTD=
EXTT0=
EXTT1=
EXTT2=
EXTT3=
EXTT4=
EXTT5=
EXTT6=
EXTT7=
EXTT8=
EXTT9=
PLAYORDER=
